<svg width="20" height="20" viewBox="0 0 20 20" fill="none" xmlns="http://www.w3.org/2000/svg">
<path d="M5.52714 8.54167C6.1991 8.54167 6.8054 8.17013 7.22008 7.64139C7.86438 6.81987 8.67641 6.13616 9.60461 5.64185C10.2064 5.32136 10.7286 4.84524 10.9818 4.2122C11.159 3.76925 11.25 3.29656 11.25 2.81948V2.29167C11.25 1.94649 11.5298 1.66667 11.875 1.66667C12.9105 1.66667 13.75 2.50613 13.75 3.54167C13.75 4.50136 13.5337 5.41053 13.1472 6.22309C12.9259 6.68837 13.2364 7.29167 13.7516 7.29167M13.7516 7.29167H16.3564C17.212 7.29167 17.9778 7.86999 18.0683 8.72072C18.1058 9.07257 18.125 9.42987 18.125 9.79167C18.125 12.1647 17.2984 14.3446 15.9175 16.0593C15.5945 16.4604 15.0952 16.6667 14.5802 16.6667H11.2335C10.8305 16.6667 10.4301 16.6017 10.0477 16.4742L7.45231 15.6091C7.06994 15.4816 6.66952 15.4167 6.26646 15.4167H4.92017M13.7516 7.29167H11.875M4.92017 15.4167C4.98918 15.5871 5.06428 15.7545 5.14519 15.9185C5.30947 16.2514 5.08017 16.6667 4.7089 16.6667H3.95241C3.21181 16.6667 2.52493 16.235 2.3088 15.5266C2.02674 14.6022 1.875 13.6209 1.875 12.6042C1.875 11.3104 2.12067 10.0741 2.56791 8.93926C2.82212 8.29419 3.47278 7.91667 4.16613 7.91667H5.04343C5.4367 7.91667 5.66442 8.37993 5.46025 8.71604C4.77157 9.84982 4.375 11.1807 4.375 12.6042C4.375 13.5988 4.5686 14.5481 4.92017 15.4167Z" stroke="white" stroke-width="1.5" stroke-linecap="round" stroke-linejoin="round"/>
</svg>
