<svg width="47" height="32" viewBox="0 0 47 32" fill="none" xmlns="http://www.w3.org/2000/svg">
<rect x="0.335938" width="46.6667" height="32" rx="8" fill="white"/>
<path fill-rule="evenodd" clip-rule="evenodd" d="M24.0039 22.8762C22.4151 24.2473 20.3543 25.075 18.1023 25.075C13.0774 25.075 9.00391 20.9542 9.00391 15.871C9.00391 10.7878 13.0774 6.66699 18.1023 6.66699C20.3543 6.66699 22.4151 7.49466 24.0039 8.8657C25.5927 7.49466 27.6536 6.66699 29.9055 6.66699C34.9304 6.66699 39.0039 10.7878 39.0039 15.871C39.0039 20.9542 34.9304 25.075 29.9055 25.075C27.6536 25.075 25.5927 24.2473 24.0039 22.8762Z" fill="#ED0006"/>
<path fill-rule="evenodd" clip-rule="evenodd" d="M24.0039 22.8762C25.9602 21.1881 27.2006 18.6761 27.2006 15.871C27.2006 13.0659 25.9602 10.5539 24.0039 8.8657C25.5927 7.49466 27.6536 6.66699 29.9055 6.66699C34.9304 6.66699 39.0039 10.7878 39.0039 15.871C39.0039 20.9542 34.9304 25.075 29.9055 25.075C27.6536 25.075 25.5927 24.2473 24.0039 22.8762Z" fill="#F9A000"/>
<path fill-rule="evenodd" clip-rule="evenodd" d="M24.0052 22.8761C25.9614 21.1879 27.2018 18.676 27.2018 15.8709C27.2018 13.0659 25.9614 10.5539 24.0052 8.86572C22.049 10.5539 20.8086 13.0659 20.8086 15.8709C20.8086 18.676 22.049 21.1879 24.0052 22.8761Z" fill="#FF5E00"/>
</svg>
