<svg width="47" height="32" viewBox="0 0 47 32" fill="none" xmlns="http://www.w3.org/2000/svg">
<rect width="46.6667" height="32" rx="8" fill="white"/>
<path d="M33 16.0042C32.9979 21.5273 28.5184 26.0026 22.9958 26C17.4732 25.9979 12.9979 21.5189 13 15.9958C13.0021 10.4748 17.4779 6.00053 22.9989 6C28.5221 5.99947 32.9995 10.4769 33 16V16.0042Z" fill="#F7931A"/>
<path d="M24.8239 14.06C24.8239 15.3379 22.8176 15.1888 22.1792 15.1888V12.9302C22.8176 12.9292 24.8212 12.7261 24.8212 14.059L24.8239 14.06ZM25.3496 17.5732C25.3496 18.9775 22.9456 18.8178 22.1787 18.8183V16.3281C22.9456 16.3276 25.3501 16.107 25.3501 17.5721L25.3496 17.5732ZM26.9322 13.5533C26.8037 12.2135 25.6469 11.7645 24.187 11.6365V9.77832H23.0562V11.5878C22.7589 11.5878 22.4548 11.5936 22.1527 11.6V9.77885H21.0224V11.6365C20.7775 11.6412 20.5369 11.646 20.3025 11.646V11.6402H18.7422V12.8498C18.7422 12.8498 19.5774 12.834 19.5636 12.8498C19.8794 12.8091 20.1698 13.0302 20.2142 13.3454V15.4612C20.2539 15.4612 20.2941 15.4638 20.3337 15.4691H20.2142V18.4348C20.201 18.6554 20.0122 18.8231 19.7921 18.8098H19.7911C19.8053 18.8225 18.9691 18.8098 18.9691 18.8098L18.7443 20.1607H20.2163C20.4903 20.1607 20.7595 20.1655 21.024 20.1676V22.0469H22.1538V20.1872C22.4638 20.1935 22.7642 20.1962 23.0572 20.1962V22.0474H24.1865V20.1713C26.0906 20.0624 27.4193 19.5831 27.5844 17.7975C27.7176 16.3593 27.0411 15.7177 25.9621 15.4585C26.6809 15.1179 27.0792 14.3351 26.9322 13.5533Z" fill="white"/>
</svg>
