<svg width="47" height="32" viewBox="0 0 47 32" fill="none" xmlns="http://www.w3.org/2000/svg">
<rect x="0.335938" width="46.6667" height="32" rx="8" fill="white"/>
<g clip-path="url(#clip0_4822_1047)">
<path fill-rule="evenodd" clip-rule="evenodd" d="M16.5453 6.09823L12.3532 14.9037C12.3372 14.9365 12.3322 14.9735 12.3387 15.0093C12.3453 15.0451 12.3632 15.0779 12.3897 15.1029L23.7116 25.9519C23.7438 25.9828 23.7866 26 23.8311 26C23.8757 26 23.9185 25.9828 23.9507 25.9519L35.2725 15.1035C35.2991 15.0786 35.317 15.0458 35.3235 15.01C35.3301 14.9742 35.3251 14.9372 35.3091 14.9044L31.117 6.09891C31.1035 6.06933 31.0817 6.04428 31.0543 6.02674C31.027 6.00921 30.9951 5.99993 30.9626 6.00001H16.7011C16.6684 5.99961 16.6363 6.00866 16.6086 6.02609C16.581 6.04352 16.559 6.06857 16.5453 6.09823Z" fill="#50AF95"/>
<path fill-rule="evenodd" clip-rule="evenodd" d="M25.2874 15.8076C25.2061 15.8137 24.7862 15.8388 23.8494 15.8388C23.1043 15.8388 22.5753 15.8164 22.3897 15.8076C19.5103 15.681 17.3611 15.1797 17.3611 14.5796C17.3611 13.9795 19.5103 13.4789 22.3897 13.3502V15.3084C22.578 15.322 23.1172 15.3538 23.8623 15.3538C24.7564 15.3538 25.2041 15.3165 25.2847 15.3091V13.3516C28.158 13.4796 30.3025 13.9808 30.3025 14.5796C30.3025 15.1784 28.1587 15.6796 25.2847 15.8069L25.2874 15.8076ZM25.2874 13.149V11.3967H29.2973V8.72461H18.3798V11.3967H22.389V13.1484C19.1303 13.2981 16.6797 13.9436 16.6797 14.7171C16.6797 15.4906 19.1303 16.1355 22.389 16.2858V21.901H25.2867V16.2838C28.538 16.1341 30.9846 15.4893 30.9846 14.7164C30.9846 13.9436 28.54 13.2987 25.2867 13.1484L25.2874 13.149Z" fill="white"/>
</g>
<defs>
<clipPath id="clip0_4822_1047">
<rect width="22.9912" height="20" fill="white" transform="translate(12.3359 6)"/>
</clipPath>
</defs>
</svg>
