<svg width="48" height="32" viewBox="0 0 48 32" fill="none" xmlns="http://www.w3.org/2000/svg">
<g id="Payment Method/Visa">
<rect x="0.667969" width="46.6667" height="32" rx="8" fill="white"/>
<path id="visa-logo" fill-rule="evenodd" clip-rule="evenodd" d="M14.835 21.6773H12.0079L9.88791 13.5895C9.78728 13.2175 9.57363 12.8886 9.25936 12.7335C8.47505 12.344 7.61079 12.0339 6.66797 11.8776V11.5662H11.2222C11.8507 11.5662 12.3222 12.0339 12.4007 12.5772L13.5007 18.4112L16.3264 11.5662H19.0749L14.835 21.6773ZM20.6463 21.6773H17.9763L20.1749 11.5662H22.8449L20.6463 21.6773ZM26.2991 14.3673C26.3777 13.8227 26.8491 13.5113 27.3991 13.5113C28.2633 13.4331 29.2048 13.5895 29.9905 13.9777L30.4619 11.8008C29.6762 11.4894 28.8119 11.333 28.0276 11.333C25.4362 11.333 23.5506 12.7336 23.5506 14.6773C23.5506 16.1561 24.8863 16.9325 25.8291 17.4002C26.8491 17.8666 27.2419 18.178 27.1634 18.6444C27.1634 19.344 26.3777 19.6554 25.5934 19.6554C24.6506 19.6554 23.7077 19.4222 22.8449 19.0326L22.3734 21.2109C23.3163 21.5992 24.3363 21.7555 25.2791 21.7555C28.1848 21.8324 29.9905 20.4332 29.9905 18.333C29.9905 15.6883 26.2991 15.5333 26.2991 14.3673ZM39.3346 21.6773L37.2147 11.5662H34.9375C34.4661 11.5662 33.9947 11.8776 33.8376 12.344L29.9119 21.6773H32.6604L33.209 20.2H36.5861L36.9004 21.6773H39.3346ZM35.3304 14.2891L36.1147 18.0998H33.9162L35.3304 14.2891Z" fill="#172B85"/>
</g>
</svg>
